<svg width="214" height="43" viewBox="0 0 214 43" fill="none" xmlns="http://www.w3.org/2000/svg">
<line x1="14" y1="9" x2="214" y2="9" stroke="#DCDCDC" stroke-width="2"/>
<line x1="14" y1="9" x2="133" y2="9" stroke="black" stroke-width="2"/>
<circle cx="14" cy="9" r="8" fill="#EBEBEB" stroke="black" stroke-width="2"/>
<circle cx="133" cy="9" r="8" fill="#EBEBEB" stroke="black" stroke-width="2"/>
<path opacity="0.3" d="M7.96289 34.395C7.98289 34.615 7.99289 34.855 7.99289 35.115C7.99289 35.355 7.98289 35.585 7.96289 35.805C7.87289 36.825 7.51789 37.64 6.89789 38.25C6.28789 38.85 5.45789 39.15 4.40789 39.15C3.35789 39.15 2.52289 38.85 1.90289 38.25C1.29289 37.64 0.942891 36.825 0.852891 35.805C0.842891 35.695 0.837891 35.465 0.837891 35.115C0.837891 34.745 0.842891 34.505 0.852891 34.395C0.932891 33.375 1.28289 32.565 1.90289 31.965C2.52289 31.355 3.35789 31.05 4.40789 31.05C5.45789 31.05 6.29289 31.355 6.91289 31.965C7.53289 32.565 7.88289 33.375 7.96289 34.395ZM6.59789 34.47C6.53789 33.83 6.32289 33.315 5.95289 32.925C5.59289 32.535 5.07789 32.34 4.40789 32.34C3.73789 32.34 3.21789 32.535 2.84789 32.925C2.48789 33.315 2.27789 33.83 2.21789 34.47C2.20789 34.59 2.20289 34.805 2.20289 35.115C2.20289 35.415 2.20789 35.62 2.21789 35.73C2.27789 36.37 2.48789 36.885 2.84789 37.275C3.21789 37.665 3.73789 37.86 4.40789 37.86C5.07789 37.86 5.59289 37.665 5.95289 37.275C6.32289 36.885 6.53789 36.37 6.59789 35.73C6.61789 35.51 6.62789 35.305 6.62789 35.115C6.62789 34.925 6.61789 34.71 6.59789 34.47ZM15.9301 31.2C16.0401 31.2 16.1351 31.24 16.2151 31.32C16.2951 31.4 16.3351 31.495 16.3351 31.605V32.085C16.3351 32.195 16.2951 32.29 16.2151 32.37C16.1351 32.45 16.0401 32.49 15.9301 32.49H13.3351V38.595C13.3351 38.705 13.2951 38.8 13.2151 38.88C13.1351 38.96 13.0401 39 12.9301 39H12.3751C12.2651 39 12.1701 38.96 12.0901 38.88C12.0101 38.8 11.9701 38.705 11.9701 38.595V32.49H9.37512C9.26512 32.49 9.17012 32.45 9.09012 32.37C9.01012 32.29 8.97012 32.195 8.97012 32.085V31.605C8.97012 31.495 9.01012 31.4 9.09012 31.32C9.17012 31.24 9.26512 31.2 9.37512 31.2H15.9301ZM28.8095 35.025C28.7895 36.265 28.4595 37.265 27.8195 38.025C27.1895 38.775 26.2445 39.15 24.9845 39.15C23.7245 39.15 22.7745 38.775 22.1345 38.025C21.5045 37.265 21.1795 36.265 21.1595 35.025L21.1445 33.75L21.1595 32.49C21.1795 31.25 21.5045 30.25 22.1345 29.49C22.7745 28.73 23.7245 28.35 24.9845 28.35C26.2445 28.35 27.1895 28.73 27.8195 29.49C28.4595 30.25 28.7895 31.25 28.8095 32.49C28.8195 32.79 28.8245 33.21 28.8245 33.75C28.8245 34.3 28.8195 34.725 28.8095 35.025ZM24.9845 37.8C26.5545 37.8 27.3595 36.875 27.3995 35.025C27.4095 34.725 27.4145 34.3 27.4145 33.75C27.4145 33.21 27.4095 32.79 27.3995 32.49C27.3595 30.63 26.5545 29.7 24.9845 29.7C23.4145 29.7 22.6095 30.63 22.5695 32.49L22.5545 33.75L22.5695 35.025C22.6095 36.875 23.4145 37.8 24.9845 37.8Z" fill="black"/>
<path opacity="0.3" d="M104.811 27.605C104.811 27.495 104.846 27.4 104.916 27.32C104.996 27.24 105.091 27.2 105.201 27.2H109.386C109.496 27.2 109.591 27.24 109.671 27.32C109.751 27.4 109.791 27.495 109.791 27.605V33.71H110.076C110.186 33.71 110.281 33.75 110.361 33.83C110.441 33.91 110.481 34.005 110.481 34.115V36.245C110.481 36.355 110.441 36.45 110.361 36.53C110.281 36.61 110.186 36.65 110.076 36.65H109.521C109.411 36.65 109.316 36.61 109.236 36.53C109.156 36.45 109.116 36.355 109.116 36.245V35H104.676V36.245C104.676 36.355 104.636 36.45 104.556 36.53C104.476 36.61 104.381 36.65 104.271 36.65H103.716C103.606 36.65 103.511 36.61 103.431 36.53C103.351 36.45 103.311 36.355 103.311 36.245V34.115C103.311 34.005 103.351 33.91 103.431 33.83C103.511 33.75 103.606 33.71 103.716 33.71H104.061C104.361 33.71 104.561 33.58 104.661 33.32C104.761 33.06 104.811 32.695 104.811 32.225V27.605ZM106.176 28.49V32.465C106.176 33.015 106.081 33.43 105.891 33.71H108.426V28.49H106.176ZM119.06 30.395C119.08 30.615 119.09 30.855 119.09 31.115C119.09 31.355 119.08 31.585 119.06 31.805C118.97 32.825 118.615 33.64 117.995 34.25C117.385 34.85 116.555 35.15 115.505 35.15C114.455 35.15 113.62 34.85 113 34.25C112.39 33.64 112.04 32.825 111.95 31.805C111.94 31.695 111.935 31.465 111.935 31.115C111.935 30.745 111.94 30.505 111.95 30.395C112.03 29.375 112.38 28.565 113 27.965C113.62 27.355 114.455 27.05 115.505 27.05C116.555 27.05 117.39 27.355 118.01 27.965C118.63 28.565 118.98 29.375 119.06 30.395ZM117.695 30.47C117.635 29.83 117.42 29.315 117.05 28.925C116.69 28.535 116.175 28.34 115.505 28.34C114.835 28.34 114.315 28.535 113.945 28.925C113.585 29.315 113.375 29.83 113.315 30.47C113.305 30.59 113.3 30.805 113.3 31.115C113.3 31.415 113.305 31.62 113.315 31.73C113.375 32.37 113.585 32.885 113.945 33.275C114.315 33.665 114.835 33.86 115.505 33.86C116.175 33.86 116.69 33.665 117.05 33.275C117.42 32.885 117.635 32.37 117.695 31.73C117.715 31.51 117.725 31.305 117.725 31.115C117.725 30.925 117.715 30.71 117.695 30.47ZM127.944 33.8C128.634 33.8 129.204 33.615 129.654 33.245C130.104 32.865 130.329 32.325 130.329 31.625C130.329 30.925 130.104 30.39 129.654 30.02C129.204 29.64 128.634 29.45 127.944 29.45C127.534 29.45 127.214 29.5 126.984 29.6C126.754 29.69 126.524 29.815 126.294 29.975C126.174 30.065 126.069 30.135 125.979 30.185C125.899 30.225 125.804 30.245 125.694 30.245H124.929C124.839 30.245 124.759 30.215 124.689 30.155C124.629 30.085 124.599 30.005 124.599 29.915L125.049 24.905C125.049 24.795 125.089 24.7 125.169 24.62C125.249 24.54 125.344 24.5 125.454 24.5H130.749C130.859 24.5 130.954 24.54 131.034 24.62C131.114 24.7 131.154 24.795 131.154 24.905V25.445C131.154 25.555 131.114 25.65 131.034 25.73C130.954 25.81 130.859 25.85 130.749 25.85H126.384L126.144 28.445C126.654 28.215 127.254 28.1 127.944 28.1C128.654 28.1 129.294 28.245 129.864 28.535C130.444 28.815 130.904 29.225 131.244 29.765C131.584 30.295 131.754 30.915 131.754 31.625C131.754 32.335 131.584 32.96 131.244 33.5C130.904 34.03 130.444 34.44 129.864 34.73C129.294 35.01 128.654 35.15 127.944 35.15C127.284 35.15 126.664 35.03 126.084 34.79C125.504 34.54 125.039 34.195 124.689 33.755C124.339 33.315 124.159 32.82 124.149 32.27C124.149 32.18 124.179 32.105 124.239 32.045C124.309 31.975 124.389 31.94 124.479 31.94H125.169C125.259 31.94 125.339 31.97 125.409 32.03C125.479 32.09 125.529 32.17 125.559 32.27C125.689 32.73 125.974 33.1 126.414 33.38C126.854 33.66 127.364 33.8 127.944 33.8ZM140.99 31.025C140.97 32.265 140.64 33.265 140 34.025C139.37 34.775 138.425 35.15 137.165 35.15C135.905 35.15 134.955 34.775 134.315 34.025C133.685 33.265 133.36 32.265 133.34 31.025L133.325 29.75L133.34 28.49C133.36 27.25 133.685 26.25 134.315 25.49C134.955 24.73 135.905 24.35 137.165 24.35C138.425 24.35 139.37 24.73 140 25.49C140.64 26.25 140.97 27.25 140.99 28.49C141 28.79 141.005 29.21 141.005 29.75C141.005 30.3 141 30.725 140.99 31.025ZM137.165 33.8C138.735 33.8 139.54 32.875 139.58 31.025C139.59 30.725 139.595 30.3 139.595 29.75C139.595 29.21 139.59 28.79 139.58 28.49C139.54 26.63 138.735 25.7 137.165 25.7C135.595 25.7 134.79 26.63 134.75 28.49L134.735 29.75L134.75 31.025C134.79 32.875 135.595 33.8 137.165 33.8ZM150.497 31.025C150.477 32.265 150.147 33.265 149.507 34.025C148.877 34.775 147.932 35.15 146.672 35.15C145.412 35.15 144.462 34.775 143.822 34.025C143.192 33.265 142.867 32.265 142.847 31.025L142.832 29.75L142.847 28.49C142.867 27.25 143.192 26.25 143.822 25.49C144.462 24.73 145.412 24.35 146.672 24.35C147.932 24.35 148.877 24.73 149.507 25.49C150.147 26.25 150.477 27.25 150.497 28.49C150.507 28.79 150.512 29.21 150.512 29.75C150.512 30.3 150.507 30.725 150.497 31.025ZM146.672 33.8C148.242 33.8 149.047 32.875 149.087 31.025C149.097 30.725 149.102 30.3 149.102 29.75C149.102 29.21 149.097 28.79 149.087 28.49C149.047 26.63 148.242 25.7 146.672 25.7C145.102 25.7 144.297 26.63 144.257 28.49L144.242 29.75L144.257 31.025C144.297 32.875 145.102 33.8 146.672 33.8ZM160.004 31.025C159.984 32.265 159.654 33.265 159.014 34.025C158.384 34.775 157.439 35.15 156.179 35.15C154.919 35.15 153.969 34.775 153.329 34.025C152.699 33.265 152.374 32.265 152.354 31.025L152.339 29.75L152.354 28.49C152.374 27.25 152.699 26.25 153.329 25.49C153.969 24.73 154.919 24.35 156.179 24.35C157.439 24.35 158.384 24.73 159.014 25.49C159.654 26.25 159.984 27.25 160.004 28.49C160.014 28.79 160.019 29.21 160.019 29.75C160.019 30.3 160.014 30.725 160.004 31.025ZM156.179 33.8C157.749 33.8 158.554 32.875 158.594 31.025C158.604 30.725 158.609 30.3 158.609 29.75C158.609 29.21 158.604 28.79 158.594 28.49C158.554 26.63 157.749 25.7 156.179 25.7C154.609 25.7 153.804 26.63 153.764 28.49L153.749 29.75L153.764 31.025C153.804 32.875 154.609 33.8 156.179 33.8Z" fill="black"/>
</svg>
